tugOfWar_states
version=1
nRows=24
nColumns=19
inDegrees=yes

# SIMM Motion File Header:
name tugOfWar_states
datacolumns 19
datarows 24
otherdata 1
range 3.74432679 3.77663245
endheader
time	blockToGround_xRotation	blockToGround_yRotation	blockToGround_zRotation	blockToGround_xTranslation	blockToGround_yTranslation	blockToGround_zTranslation	blockToGround_xRotation_u	blockToGround_yRotation_u	blockToGround_zRotation_u	blockToGround_xTranslation_u	blockToGround_yTranslation_u	blockToGround_zTranslation_u	Liu.activation	Liu.active_motor_units	Liu.fatigued_motor_units	Liu.fiber_length	Thelen.activation	Thelen.fiber_length
      3.74432679	      0.00000000	     -0.00000000	      0.00000000	     -0.00182303	     -0.00034444	      0.00342535	      0.00000000	     -0.00000000	      0.00000000	     -0.00744454	     -0.01450112	      0.00112830	      0.74899115	      0.27239485	      0.74899115	      0.10000000	      0.74899115	      0.09223666
      3.74602714	      0.00000000	     -0.00000000	      0.00000000	     -0.00183617	     -0.00035778	      0.00342730	      0.00000000	     -0.00000000	      0.00000000	     -0.00797586	     -0.00099269	      0.00113223	      0.74949266	      0.27252471	      0.74949266	      0.10000000	      0.74949266	      0.09223468
      3.74772749	      0.00000000	     -0.00000000	      0.00000000	     -0.00185003	     -0.00034774	      0.00342912	      0.00000000	     -0.00000000	      0.00000000	     -0.00828863	      0.01265437	      0.00098539	      0.74964274	      0.27265563	      0.74964274	      0.10000000	      0.74964274	      0.09223262
      3.74914584	      0.00000000	     -0.00000000	      0.00000000	     -0.00186188	     -0.00032244	      0.00343037	      0.00000000	     -0.00000000	      0.00000000	     -0.00840932	      0.02272234	      0.00076024	      0.75006427	      0.27276550	      0.75006427	      0.10000000	      0.75006427	      0.09223079
      3.75056420	      0.00000000	     -0.00000000	      0.00000000	     -0.00187383	     -0.00028436	      0.00343125	      0.00000000	     -0.00000000	      0.00000000	     -0.00842601	      0.03050990	      0.00047783	      0.75017925	      0.27287577	      0.75017925	      0.10000000	      0.75017925	      0.09222909
      3.75181368	      0.00000000	     -0.00000000	      0.00000000	     -0.00188433	     -0.00024326	      0.00343168	      0.00000000	     -0.00000000	      0.00000000	     -0.00836290	      0.03485350	      0.00020327	      0.75066676	      0.27297305	      0.75066676	      0.10000000	      0.75066676	      0.09222763
      3.75306317	      0.00000000	     -0.00000000	      0.00000000	     -0.00189470	     -0.00019840	      0.00343176	      0.00000000	     -0.00000000	      0.00000000	     -0.00822728	      0.03647956	     -0.00006401	      0.75066654	      0.27307027	      0.75066654	      0.10000000	      0.75066654	      0.09222640
      3.75425585	      0.00000000	     -0.00000000	      0.00000000	     -0.00190440	     -0.00015529	      0.00343154	      0.00000000	     -0.00000000	      0.00000000	     -0.00802692	      0.03537829	     -0.00029620	      0.75118611	      0.27316283	      0.75118611	      0.10000000	      0.75118611	      0.09222539
      3.75544853	      0.00000000	     -0.00000000	      0.00000000	     -0.00191382	     -0.00011501	      0.00343107	      0.00000000	     -0.00000000	      0.00000000	     -0.00775304	      0.03176283	     -0.00048213	      0.75118586	      0.27325502	      0.75118586	      0.10000000	      0.75118586	      0.09222462
      3.75697857	      0.00000000	     -0.00000000	      0.00000000	     -0.00192534	     -0.00007203	      0.00343020	      0.00000000	     -0.00000000	      0.00000000	     -0.00729090	      0.02387371	     -0.00063876	      0.75176560	      0.27337259	      0.75176560	      0.10000000	      0.75176560	      0.09222391
      3.75850861	      0.00000000	     -0.00000000	      0.00000000	     -0.00193607	     -0.00004339	      0.00342918	      0.00000000	     -0.00000000	      0.00000000	     -0.00671460	      0.01320321	     -0.00067987	      0.75176526	      0.27348924	      0.75176526	      0.10000000	      0.75176526	      0.09222358
      3.75975685	      0.00000000	     -0.00000000	      0.00000000	     -0.00194413	     -0.00003302	      0.00342835	      0.00000000	     -0.00000000	      0.00000000	     -0.00618704	      0.00329492	     -0.00063643	      0.75227510	      0.27358368	      0.75227510	      0.10000000	      0.75227510	      0.09222347
      3.76100510	      0.00000000	     -0.00000000	      0.00000000	     -0.00195151	     -0.00003527	      0.00342762	      0.00000000	     -0.00000000	      0.00000000	     -0.00565044	     -0.00686959	     -0.00052928	      0.75227485	      0.27367752	      0.75227485	      0.10000000	      0.75227485	      0.09222348
      3.76228653	      0.00000000	     -0.00000000	      0.00000000	     -0.00195842	     -0.00005050	      0.00342704	      0.00000000	     -0.00000000	      0.00000000	     -0.00514502	     -0.01674073	     -0.00037296	      0.75273872	      0.27377330	      0.75273872	      0.10000000	      0.75273872	      0.09222346
      3.76356795	      0.00000000	     -0.00000000	      0.00000000	     -0.00196474	     -0.00007758	      0.00342668	      0.00000000	     -0.00000000	      0.00000000	     -0.00474259	     -0.02523866	     -0.00017951	      0.75273852	      0.27386862	      0.75273852	      0.10000000	      0.75273852	      0.09222351
      3.76466008	      0.00000000	     -0.00000000	      0.00000000	     -0.00196979	     -0.00010837	      0.00342658	      0.00000000	     -0.00000000	      0.00000000	     -0.00451757	     -0.03086981	      0.00000516	      0.75335199	      0.27394961	      0.75335199	      0.10000000	      0.75335199	      0.09222342
      3.76575221	      0.00000000	     -0.00000000	      0.00000000	     -0.00197466	     -0.00014434	      0.00342670	      0.00000000	     -0.00000000	      0.00000000	     -0.00442563	     -0.03465803	      0.00021452	      0.75335165	      0.27403047	      0.75335165	      0.10000000	      0.75335165	      0.09222327
      3.76807168	      0.00000000	     -0.00000000	      0.00000000	     -0.00198515	     -0.00022784	      0.00342779	      0.00000000	     -0.00000000	      0.00000000	     -0.00473763	     -0.03571806	      0.00074510	      0.75382790	      0.27420226	      0.75382790	      0.10000000	      0.75382790	      0.09222257
      3.77039114	      0.00000000	     -0.00000000	      0.00000000	     -0.00199714	     -0.00030264	      0.00343026	      0.00000000	     -0.00000000	      0.00000000	     -0.00568492	     -0.02733186	      0.00138717	      0.75411357	      0.27437519	      0.75411357	      0.10000000	      0.75411357	      0.09222112
      3.77152206	      0.00000000	     -0.00000000	      0.00000000	     -0.00200389	     -0.00032978	      0.00343200	      0.00000000	     -0.00000000	      0.00000000	     -0.00624893	     -0.02040000	      0.00167250	      0.75469964	      0.27446036	      0.75469964	      0.10000000	      0.75469964	      0.09221996
      3.77265298	      0.00000000	     -0.00000000	      0.00000000	     -0.00201126	     -0.00034829	      0.00343402	      0.00000000	     -0.00000000	      0.00000000	     -0.00677633	     -0.01216434	      0.00188127	      0.75469932	      0.27454631	      0.75469932	      0.10000000	      0.75469932	      0.09221852
      3.77452510	      0.00000000	     -0.00000000	      0.00000000	     -0.00202462	     -0.00035709	      0.00343766	      0.00000000	     -0.00000000	      0.00000000	     -0.00744521	      0.00289907	      0.00195133	      0.75493075	      0.27469055	      0.75493075	      0.10000000	      0.75493075	      0.09221571
      3.77557877	      0.00000000	     -0.00000000	      0.00000000	     -0.00203261	     -0.00034956	      0.00343966	      0.00000000	     -0.00000000	      0.00000000	     -0.00769784	      0.01132350	      0.00182238	      0.75549001	      0.27477287	      0.75549001	      0.10000000	      0.75549001	      0.09221382
      3.77663245	      0.00000000	     -0.00000000	      0.00000000	     -0.00204082	     -0.00033345	      0.00344147	      0.00000000	     -0.00000000	      0.00000000	     -0.00787269	      0.01911741	      0.00158517	      0.75548972	      0.27485593	      0.75548972	      0.10000000	      0.75548972	      0.09221182
